
<svg width="250" height="37" viewBox="0 0 250 37" fill="none" xmlns="http://www.w3.org/2000/svg">

<g transform="translate(0.000000,39.000000) scale(0.100000,-0.100000)"
fill="#000000" stroke="none">
<path d="M117 327 c-4 -10 -7 -35 -7 -56 0 -40 -14 -61 -40 -61 -12 0 -15 8
-12 34 2 18 -2 44 -9 57 -13 24 -13 24 -20 -11 -4 -19 -11 -70 -15 -112 -5
-63 -4 -78 7 -78 8 0 22 14 31 30 22 39 34 38 42 -2 5 -27 8 -30 20 -17 23 24
37 143 22 192 -9 33 -13 38 -19 24z"/>
<path d="M225 285 c-42 -60 -59 -142 -35 -170 20 -24 66 -18 102 14 l32 28
-14 59 c-8 33 -15 68 -16 80 -1 24 -12 44 -23 44 -5 0 -26 -25 -46 -55z m60
-66 c8 -36 -5 -54 -47 -64 -25 -6 -28 -4 -28 18 0 28 35 77 55 77 7 0 16 -14
20 -31z"/>
<path d="M400 327 c-66 -12 -63 -10 -55 -36 4 -13 15 -21 29 -21 l23 0 -15
-65 c-12 -51 -13 -69 -4 -90 14 -30 36 -24 27 7 -4 10 1 50 10 88 15 63 19 69
47 75 47 11 53 -4 38 -84 -16 -88 -7 -106 54 -98 65 9 76 52 13 52 -20 0 -37
3 -37 8 0 4 0 12 0 17 0 6 11 10 24 10 33 0 53 25 36 45 -7 8 -18 14 -24 13
-6 -2 -14 1 -16 6 -3 5 11 15 30 21 38 13 52 41 24 52 -9 3 -36 -1 -60 -10
-41 -15 -43 -15 -49 4 -7 21 -14 21 -95 6z"/>
<path d="M666 267 c-18 -78 -21 -153 -7 -161 4 -3 31 -3 60 1 40 4 51 10 51
23 0 21 -19 30 -61 30 -34 0 -33 -2 -14 70 18 68 19 96 2 103 -10 4 -19 -15
-31 -66z"/>
<path d="M952 328 c-17 -22 -52 -148 -52 -189 0 -56 16 -48 35 17 16 55 16 55
33 33 l18 -21 31 26 c17 14 32 26 34 26 2 0 2 -25 1 -55 -4 -64 12 -75 27 -17
19 72 15 183 -7 182 -4 0 -18 -18 -32 -40 -28 -47 -50 -52 -50 -12 -1 36 -23
67 -38 50z"/>
<path d="M1175 285 c-42 -60 -59 -142 -35 -170 20 -24 66 -18 102 14 l32 28
-14 59 c-8 33 -15 68 -16 80 -1 24 -12 44 -23 44 -5 0 -26 -25 -46 -55z m60
-66 c8 -36 -5 -54 -47 -64 -25 -6 -28 -4 -28 18 0 28 35 77 55 77 7 0 16 -14
20 -31z"/>
<path d="M1348 309 c-42 -100 -57 -209 -29 -209 4 0 14 25 21 56 12 47 16 54
25 40 17 -22 44 -20 72 5 l22 22 -6 -50 c-3 -33 -1 -53 6 -57 27 -17 53 165
29 197 -13 18 -16 16 -41 -22 -25 -38 -46 -52 -48 -33 -3 33 -12 59 -24 71
-12 12 -16 9 -27 -20z"/>
<path d="M1558 329 c-14 -6 -29 -17 -32 -25 -8 -22 5 -46 22 -39 12 4 13 -1 8
-27 -4 -18 -10 -57 -13 -85 l-6 -53 35 0 c69 0 108 57 73 106 -11 17 -12 27
-3 52 9 23 9 37 0 56 -12 28 -36 32 -84 15z m52 -48 c0 -14 -18 -23 -30 -16
-6 4 -8 11 -5 16 8 12 35 12 35 0z m20 -90 c0 -11 -51 -53 -57 -48 -2 3 1 16
6 31 10 25 51 39 51 17z"/>
<path d="M1909 317 c-36 -19 -45 -29 -47 -55 -3 -27 1 -32 25 -38 49 -12 57
-24 32 -51 -13 -12 -28 -23 -36 -23 -7 0 -13 -11 -13 -25 0 -35 32 -33 64 6
31 37 33 63 6 107 -11 18 -20 35 -20 37 0 3 15 5 34 5 41 0 47 7 35 38 -11 28
-25 28 -80 -1z"/>
<path d="M1753 301 c-25 -32 -68 -165 -59 -187 8 -22 23 -9 31 27 5 23 10 27
20 19 7 -6 20 -7 29 -4 14 5 16 2 11 -19 -4 -15 -2 -28 5 -32 15 -10 30 12 30
46 0 14 6 31 13 38 10 10 9 15 -5 25 -9 7 -21 34 -25 61 -5 27 -13 50 -18 51
-6 2 -20 -10 -32 -25z m27 -81 c0 -11 -7 -20 -15 -20 -17 0 -18 2 -9 24 9 23
24 20 24 -4z"/>
<path d="M2061 306 c-24 -25 -61 -134 -61 -179 0 -39 22 -30 33 13 6 23 11 30
17 21 4 -8 16 -11 29 -6 22 7 28 -4 11 -21 -5 -5 -6 -15 0 -24 13 -21 30 -2
41 50 8 34 7 46 -6 60 -8 9 -15 30 -15 47 0 35 -9 63 -19 63 -4 0 -18 -11 -30
-24z m15 -103 c-14 -14 -23 4 -13 27 l10 25 5 -23 c2 -13 1 -26 -2 -29z"/>
</g>
</svg>
